<?xml version="1.0" encoding="utf-8"?>
<!-- Generator: Adobe Illustrator 21.1.0, SVG Export Plug-In . SVG Version: 6.00 Build 0)  -->
<svg version="1.1" id="RĂŠteg_1" xmlns="http://www.w3.org/2000/svg" xmlns:xlink="http://www.w3.org/1999/xlink" x="0px" y="0px"
	 viewBox="0 0 344.6 95.5" style="enable-background:new 0 0 344.6 95.5;" xml:space="preserve">
<style type="text/css">
	.st0{fill:#1C5E9E;}
</style>
<g>
	<path class="st0" d="M205.7,0c22,2.7,39,21.7,39,44.6c0,23.1-17.3,42.2-39.5,44.7l-0.8-8.1c18.1-2.1,32.2-17.7,32.2-36.6
		c0-18.7-13.8-34.2-31.8-36.5L205.7,0L205.7,0z M337.8,3.1v10l-2.7,12.6h-2.4l-2.3-12.6v-10L337.8,3.1L337.8,3.1z M286.5,44.4v31.4
		H283l-2.4-8.3c-2.6,6.1-6.5,9.2-11.9,9.2c-6,0-10.5-3.2-13.4-9.6s-4.4-13.7-4.4-22.1c0-8.9,1.7-16.4,5-22.5
		c3.3-6.1,7.9-9.2,13.8-9.2c4.4,0,8.1,1.8,10.9,5.4s4.7,8,5.4,13.4l-6.9,1.7c-1.3-7.5-4.4-11.3-9.3-11.3c-3.1,0-5.7,1.8-7.6,5.3
		c-2,3.5-2.9,9-2.9,16.3c0,15.5,3.5,23.3,10.4,23.3c2.7,0,5-1.3,6.7-3.9c1.8-2.6,2.7-6.1,2.7-10.4H270v-8.7L286.5,44.4L286.5,44.4z
		 M311.7,76.8c-5.8,0-10.4-3.1-13.7-9.2s-4.9-13.7-4.9-22.7c0-8.9,1.7-16.4,5.2-22.4s8-9,13.7-9s10.2,3,13.6,9c3.3,6,5,13.5,5,22.6
		c0,9.5-1.7,17.2-5.2,23C321.9,73.9,317.4,76.8,311.7,76.8L311.7,76.8z M311.7,67.9c2.9,0,5.3-1.6,7.2-4.9c2-3.3,3-9.3,3-18
		c0-7.1-0.8-12.6-2.5-16.6c-1.6-4-4.2-6-7.6-6c-6.8,0-10.2,7.6-10.2,22.9c0,7.4,0.9,13,2.6,16.9C306,66,308.5,67.9,311.7,67.9
		L311.7,67.9z M0.4,75.8V14.4h16.9c6.3,0,11.3,3,15.1,8.9s5.7,13.2,5.7,21.9s-2,16-5.9,21.8c-3.9,5.9-9.5,8.8-16.8,8.8H0.4L0.4,75.8
		z M8.9,66.8h6.9c3.7,0,6.8-1.9,9.4-5.6c2.6-3.7,3.9-9.3,3.9-16.6c0-6-1.1-11.1-3.4-15.2c-2.3-4.2-5.2-6.2-8.9-6.2H8.9V66.8
		L8.9,66.8z M75.7,75.8H45.8V14.4h29.6v9.1H54.1v16.7h17.1v8.9H54.1v17.2h21.6V75.8L75.7,75.8z M100.5,75.8h-8.4L77.9,14.4h8.7
		l10.5,47.1l10.8-47.1h6.9L100.5,75.8L100.5,75.8z M149.9,75.8H120V14.4h29.6v9.1h-21.3v16.7h17.1v8.9h-17.1v17.2h21.6L149.9,75.8
		L149.9,75.8z M217.7,75.8h-8.4l-6.8-25.3h-11.2v25.3h-7.9V14.4h19.1c5.3,0,9.2,1.7,11.7,5s3.7,7.7,3.7,13c0,7.9-2.6,13.3-7.9,16.3
		L217.7,75.8L217.7,75.8z M191.3,41.7h9.9c2.8,0,5-0.8,6.4-2.5s2.1-4,2.1-6.9c0-2.7-0.7-4.9-2.1-6.5c-1.4-1.7-3.3-2.5-5.8-2.5h-10.5
		L191.3,41.7L191.3,41.7z M0,94v-9.8h5.7c1,0,1.8,0.1,2.4,0.2s1.2,0.4,1.6,0.8c0.5,0.4,0.7,0.9,0.7,1.5c0,0.5-0.2,1-0.7,1.4
		s-1.1,0.7-1.9,0.8c1,0.1,1.8,0.4,2.3,0.8s0.8,1,0.8,1.6c0,0.8-0.4,1.4-1.1,1.9C9.1,93.7,7.9,94,6.4,94H0L0,94z M2.5,88.3h3.2
		c0.7,0,1.2-0.1,1.5-0.4c0.4-0.3,0.6-0.6,0.6-1c0-0.5-0.2-0.8-0.7-1c-0.4-0.2-0.9-0.3-1.5-0.3H2.5V88.3L2.5,88.3z M2.5,92.6h3.4
		c0.7,0,1.3-0.1,1.7-0.4c0.4-0.3,0.6-0.6,0.6-1s-0.2-0.7-0.6-1s-1-0.4-1.7-0.4H2.5V92.6L2.5,92.6z M22.2,94h-8.9v-9.8h2.8v8.2h6.2
		L22.2,94L22.2,94z M33.9,84.2v6.3c0,0.9-0.1,1.5-0.4,2c-0.3,0.5-0.8,0.9-1.6,1.2c-0.8,0.3-1.8,0.5-3,0.5s-2.2-0.1-2.9-0.4
		c-0.8-0.3-1.3-0.7-1.6-1.2s-0.5-1.1-0.5-1.9v-6.5h2.7v6.3c0,0.9,0.3,1.4,0.8,1.7c0.5,0.3,1.2,0.4,1.9,0.4c0.8,0,1.5-0.1,2-0.4
		s0.7-0.8,0.7-1.7v-6.3H33.9L33.9,84.2z M46.3,94h-9.5v-9.8h9.4v1.5h-6.7v2.7h5.4v1.4h-5.4v2.8h6.8L46.3,94L46.3,94z M60.2,84.2V91
		c0,1.1-0.4,1.9-1.1,2.4c-0.7,0.5-1.9,0.8-3.4,0.8c-0.9,0-1.6-0.1-2.1-0.2v-1.4c0.8,0,1.4,0.1,1.7,0.1c0.9,0,1.5-0.1,1.8-0.3
		c0.3-0.2,0.5-0.7,0.5-1.3v-6.8L60.2,84.2L60.2,84.2z M72.7,94h-9.5v-9.8h9.4v1.5h-6.7v2.7h5.4v1.4h-5.4v2.8h6.8L72.7,94L72.7,94z
		 M86.3,94h-2.8l-1.2-2.3h-5.6L75.6,94h-2.2l4.8-9.8h3.2L86.3,94L86.3,94z M81.7,90.3l-2.1-4.4l-2.1,4.4H81.7L81.7,90.3z M99.1,94
		h-2.5l-5.5-6.3c-0.1-0.1-0.2-0.3-0.4-0.5c-0.1-0.1-0.2-0.2-0.4-0.5v7.2h-2.1v-9.8h2.9l5.1,5.8c0,0,0.4,0.4,0.9,1.1v-6.9h2.1
		L99.1,94L99.1,94z M100.7,91.7l2.5-0.4c0.3,1,1.5,1.5,3.5,1.5c0.9,0,1.6-0.1,2.1-0.4c0.5-0.2,0.8-0.6,0.8-0.9s-0.1-0.5-0.3-0.7
		s-0.7-0.4-1.5-0.5l-2.8-0.5c-1-0.2-1.7-0.4-2.1-0.6c-0.5-0.2-0.8-0.5-1.1-0.9s-0.4-0.8-0.4-1.2c0-0.9,0.5-1.6,1.5-2.1
		s2.2-0.8,3.7-0.8c1.3,0,2.4,0.2,3.4,0.6s1.6,0.9,1.9,1.6l-2.5,0.4c-0.4-0.7-1.3-1.1-2.7-1.1c-0.8,0-1.4,0.1-1.9,0.3
		c-0.4,0.2-0.6,0.5-0.6,0.9c0,0.6,0.7,1,2,1.2l2.5,0.4c1.5,0.3,2.5,0.6,3,1.1s0.8,1,0.8,1.6c0,1-0.5,1.7-1.6,2.3
		c-1.1,0.6-2.5,0.8-4.2,0.8c-1.4,0-2.7-0.2-3.8-0.6C101.8,93.2,101.1,92.5,100.7,91.7L100.7,91.7z M132.7,94h-2.8l-1.2-2.3h-5.6
		L122,94h-2.2l4.8-9.8h3.2L132.7,94L132.7,94z M128,90.3l-2.1-4.4l-2.1,4.4H128L128,90.3z M145.4,94h-2.5l-5.5-6.3
		c-0.1-0.1-0.2-0.3-0.4-0.5c-0.1-0.1-0.2-0.2-0.4-0.5v7.2h-2.1v-9.8h2.9l5.1,5.8c0,0,0.4,0.4,0.9,1.1v-6.9h2.1V94H145.4z M148.5,94
		v-9.8h5.4c2,0,3.6,0.5,4.8,1.4s1.8,2.1,1.8,3.5s-0.6,2.6-1.9,3.5c-1.2,0.9-3,1.4-5.3,1.4H148.5L148.5,94z M151.2,92.6h2.2
		c1.2,0,2.2-0.3,3-0.9s1.2-1.5,1.2-2.7c0-1-0.4-1.8-1.1-2.4c-0.7-0.7-1.7-1-2.8-1h-2.5L151.2,92.6L151.2,92.6z M230.3,92.9l2.5-0.4
		c0.3,1,1.5,1.5,3.5,1.5c0.9,0,1.6-0.1,2.1-0.4c0.5-0.2,0.8-0.6,0.8-0.9s-0.1-0.5-0.3-0.7s-0.7-0.4-1.5-0.5l-2.8-0.5
		c-1-0.2-1.7-0.4-2.1-0.6c-0.5-0.2-0.8-0.5-1.1-0.9s-0.4-0.8-0.4-1.2c0-0.9,0.5-1.6,1.5-2.1s2.2-0.8,3.7-0.8c1.3,0,2.4,0.2,3.4,0.6
		s1.6,0.9,1.9,1.6L239,88c-0.4-0.7-1.3-1.1-2.7-1.1c-0.8,0-1.4,0.1-1.9,0.3c-0.4,0.2-0.6,0.5-0.6,0.9c0,0.6,0.7,1,2,1.2l2.5,0.4
		c1.5,0.3,2.5,0.6,3,1.1s0.8,1,0.8,1.6c0,1-0.5,1.7-1.6,2.3c-1.1,0.6-2.5,0.8-4.2,0.8c-1.4,0-2.7-0.2-3.8-0.6
		C231.4,94.4,230.6,93.7,230.3,92.9L230.3,92.9z M255.1,95.2h-2.6v-4.3h-5.6v4.3h-2.6v-9.8h2.6v4h5.6v-4h2.6V95.2L255.1,95.2z
		 M260.9,95.2h-2.6v-9.8h2.6V95.2L260.9,95.2z M275.4,95.2h-2.8l-2.3-4h-3.7v4H264v-9.8h6.3c1.8,0,3,0.3,3.9,0.8
		c0.8,0.5,1.2,1.2,1.2,2.1c0,1.3-0.9,2.1-2.6,2.6L275.4,95.2L275.4,95.2z M266.7,89.8h3.3c0.9,0,1.6-0.1,2.1-0.4s0.7-0.6,0.7-1.1
		c0-0.4-0.2-0.8-0.7-1c-0.5-0.3-1.1-0.4-1.9-0.4h-3.5V89.8L266.7,89.8z M283.2,95.2h-2.8v-8.3h-3.9v-1.5H287v1.5h-3.8V95.2
		L283.2,95.2z M287.3,92.9l2.5-0.4c0.3,1,1.5,1.5,3.5,1.5c0.9,0,1.6-0.1,2.1-0.4c0.5-0.2,0.7-0.6,0.7-0.9s-0.1-0.5-0.3-0.7
		c-0.2-0.2-0.7-0.4-1.5-0.5l-2.8-0.5c-1-0.2-1.7-0.4-2.1-0.6c-0.5-0.2-0.8-0.5-1.1-0.9s-0.4-0.8-0.4-1.2c0-0.9,0.5-1.6,1.5-2.1
		s2.2-0.8,3.7-0.8c1.3,0,2.4,0.2,3.4,0.6s1.6,0.9,1.9,1.6l-2.5,0.4c-0.4-0.7-1.3-1.1-2.7-1.1c-0.8,0-1.4,0.1-1.9,0.3
		c-0.4,0.2-0.6,0.5-0.6,0.9c0,0.6,0.7,1,2,1.2l2.5,0.4c1.5,0.3,2.5,0.6,3,1.1s0.8,1,0.8,1.6c0,1-0.5,1.7-1.6,2.3
		c-1.1,0.6-2.5,0.8-4.2,0.8c-1.4,0-2.7-0.2-3.8-0.6C288.4,94.4,287.7,93.7,287.3,92.9L287.3,92.9z M316.8,95.2h-8.9v-9.8h2.8v8.2
		h6.2v1.6C316.9,95.2,316.8,95.2,316.8,95.2z M322.5,95.2h-2.8v-8.3h-3.9v-1.5h10.5v1.5h-3.9L322.5,95.2L322.5,95.2z M327.9,95.2
		v-9.8h5.4c2,0,3.6,0.5,4.8,1.4c1.2,0.9,1.8,2.1,1.8,3.5s-0.6,2.6-1.9,3.5c-1.2,0.9-3,1.4-5.3,1.4H327.9L327.9,95.2z M330.6,93.8
		h2.2c1.2,0,2.2-0.3,3-0.9s1.2-1.5,1.2-2.7c0-1-0.4-1.8-1.1-2.4c-0.7-0.7-1.7-1-2.8-1h-2.5L330.6,93.8L330.6,93.8z M344.6,93.3v1.9
		H342v-1.9H344.6L344.6,93.3z M231.3,10.1V3.8h-2.4V3h5.7v0.8h-2.4v6.3H231.3L231.3,10.1z M235.5,10.1V3h1.4l1.7,5
		c0.2,0.5,0.3,0.8,0.3,1.1c0.1-0.3,0.2-0.6,0.4-1.1l1.7-4.9h1.3v7.1h-0.9V4.3l-2.1,5.9h-0.9l-2.1-6.1v6.1h-0.8L235.5,10.1
		L235.5,10.1z M195.4,89.4c-22.3-2.5-39.6-21.5-39.6-44.7c0-23.1,17.3-42.2,39.5-44.7l1,8.1c-18.3,2-32.5,17.6-32.5,36.6
		s14.3,34.7,32.5,36.6L195.4,89.4L195.4,89.4z"/>
</g>
</svg>
